<svg id="Layer_1" data-name="Layer 1" xmlns="http://www.w3.org/2000/svg" viewBox="0 0 357.81 357.4"><defs><style>.cls-1,.cls-2,.cls-3{fill:#fff;stroke:#000;stroke-miterlimit:10;}.cls-1{stroke-width:40px;}.cls-2{stroke-width:30px;}.cls-3{stroke-width:10px;}</style></defs><polyline class="cls-1" points="310.87 343.26 274.87 307.26 256.87 289.26"/><polyline class="cls-1" points="238.87 271.26 283.87 226.26 193.87 316.26"/><polyline class="cls-1" points="220.87 253.26 166.87 199.26 94.87 127.26 22.87 55.26"/><polyline class="cls-1" points="22.87 343.26 139.87 226.26 148.87 217.26"/><line class="cls-1" x1="310.87" y1="55.26" x2="184.87" y2="181.26"/><polygon points="4 64.26 0 32.26 32 36.26 4 64.26"/><path class="cls-1" d="M216,72" transform="translate(-49.13 -16.74)"/><path class="cls-1" d="M243,54" transform="translate(-49.13 -16.74)"/><path class="cls-1" d="M216,72" transform="translate(-49.13 -16.74)"/><path class="cls-2" d="M360,180" transform="translate(-49.13 -16.74)"/><line class="cls-2" x1="211.87" y1="10.26" x2="346.87" y2="154.26"/><line class="cls-3" x1="328.87" y1="163.26" x2="202.87" y2="199.26"/><line class="cls-3" x1="202.87" y1="28.26" x2="166.87" y2="163.26"/></svg>