<svg id="Layer_1" data-name="Layer 1" xmlns="http://www.w3.org/2000/svg" viewBox="0 0 328 400"><defs><style>.cls-1{fill:none;stroke-width:40px;}.cls-1,.cls-2{stroke:#000;stroke-miterlimit:10;}</style></defs><path class="cls-1" d="M270,36H162V162.73a59.33,59.33,0,0,1-19.45,43.92L98.17,246.92C81.42,265.54,72,290.79,72,317.13V396H360V317.13c0-26.34-9.42-51.59-26.17-70.21l-44.38-40.27A59.33,59.33,0,0,1,270,162.73Z" transform="translate(-52 -16)"/><path class="cls-2" d="M326.06,369a123,123,0,0,0,0-45c-1.51-8-3.28-17-9-27-8.44-14.81-20.2-22.6-27-27-27.26-17.64-56.22-18-72-18s-44.73.36-72,18c-6.79,4.4-18.55,12.19-27,27-5.71,10-7.48,19-9,27a123.41,123.41,0,0,0,0,45Z" transform="translate(-52 -16)"/></svg>